# xmcd CD database file
#
# Track frame offsets:
#	150
#	26033
#	47826
#	73882
#	88018
#	89530
#	111881
#	130876
#	151586
#	171087
#	204680
#	239769
#	267394
#
# Disc length: 3860 seconds
#
# Revision: 2
# Processed by: cddbd v1.5.2PL0 Copyright (c) Steve Scherf et al.
# Submitted via: CDex 1.70beta2
#
DISCID=bc0f120d
DTITLE=Charlie Parker - Jazz Roads CD388 - Bebop - Charlie Parker Live Vol.3 (1952-53)
DYEAR=1900
DGENRE=Jazz
TTITLE0=Charlie Parker Quartet - Ornithology
TTITLE1=Charlie Parker Quartet - 52nd Street Theme
TTITLE2=Charlie Parker With The Milt Jackson Quartet - How High The Moon
TTITLE3=Charlie Parker With The Milt Jackson Quartet - Embraceable You
TTITLE4=Charlie Parker With The Milt Jackson Quartet - 52nd Street Theme
TTITLE5=Charlie Parker Quartet - Anthropology
TTITLE6=Charlie Parker Quartet - Cool Blues
TTITLE7=Charlie Parker Quartet - Out Of Nowhere
TTITLE8=Charlie Parker Quartet - Ornithology
TTITLE9=Charlie Parker Quintet - Now's The Time
TTITLE10=Charlie Parker Quintet - My Little Suede Shoes
TTITLE11=Charlie Parker Quintet - Groovin' High
TTITLE12=Charlie Parker Quintet - Cheryl
EXTD=
EXTT0=
EXTT1=
EXTT2=
EXTT3=
EXTT4=
EXTT5=
EXTT6=
EXTT7=
EXTT8=
EXTT9=
EXTT10=
EXTT11=
EXTT12=
PLAYORDER=
